<svg xmlns="http://www.w3.org/2000/svg" width="34" height="20" viewBox="0 0 34 20" fill="none">
<path d="M0 6C0 2.68629 2.68629 0 6 0H28C31.3137 0 34 2.68629 34 6V14C34 17.3137 31.3137 20 28 20H6C2.68629 20 0 17.3137 0 14V6Z" fill="white" style="fill:white;fill-opacity:1;"></path>
<path fill-rule="evenodd" clip-rule="evenodd" d="M10.8231 13.9379H8.68469L7.08117 7.73171C7.00506 7.44623 6.84346 7.19384 6.60575 7.07489C6.01251 6.77596 5.3588 6.53806 4.64566 6.41807V6.17913H8.09041C8.56583 6.17913 8.9224 6.53806 8.98183 6.95491L9.81383 11.4316L11.9512 6.17913H14.0301L10.8231 13.9379ZM15.2187 13.9379H13.1992L14.8622 6.17913H16.8817L15.2187 13.9379ZM19.4942 8.32835C19.5536 7.91047 19.9102 7.67153 20.3262 7.67153C20.9799 7.61154 21.692 7.73152 22.2863 8.02942L22.6428 6.35892C22.0486 6.11999 21.3948 6 20.8016 6C18.8415 6 17.4152 7.0747 17.4152 8.56625C17.4152 9.70095 18.4255 10.2967 19.1387 10.6557C19.9102 11.0136 20.2073 11.2525 20.1479 11.6104C20.1479 12.1472 19.5536 12.3862 18.9604 12.3862C18.2472 12.3862 17.5341 12.2072 16.8814 11.9083L16.5249 13.5798C17.238 13.8777 18.0095 13.9977 18.7227 13.9977C20.9205 14.0566 22.2863 12.983 22.2863 11.3714C22.2863 9.34202 19.4942 9.22307 19.4942 8.32835ZM29.3544 13.9379L27.7508 6.17913H26.0285C25.6719 6.17913 25.3153 6.41807 25.1965 6.77596L22.2271 13.9379H24.3061L24.721 12.8042H27.2754L27.5131 13.9379H29.3544ZM26.3256 8.26841L26.9188 11.1926H25.2558L26.3256 8.26841Z" fill="#1434CB" style="fill:#1434CB;fill:color(display-p3 0.0784 0.2039 0.7961);fill-opacity:1;"></path>
</svg>
