<svg xmlns="http://www.w3.org/2000/svg" width="34" height="20" viewBox="0 0 34 20" fill="none">
<path d="M0 6C0 2.68629 2.68629 0 6 0H28C31.3137 0 34 2.68629 34 6V14C34 17.3137 31.3137 20 28 20H6C2.68629 20 0 17.3137 0 14V6Z" fill="white" style="fill:white;fill-opacity:1;"></path>
<g clip-path="url(#svg-682132841_2853_clip0_317_2042)">
<path d="M7.5133 6.00775C6.92622 6.00775 6.42685 6.23901 6.05008 6.63501C6.02342 6.6342 5.99677 6.63337 5.97012 6.63337C5.2039 6.63337 4.48561 7.0758 4.13508 7.76292C3.98173 8.06302 3.92473 8.38608 3.9071 8.71448C3.89111 9.00929 3.9071 9.30898 3.9071 9.60088V12.4306H5.47985C5.47985 12.4306 5.48108 11.0366 5.47985 9.83824C5.47903 9.03139 5.47411 8.31269 5.47985 8.16512C5.50773 7.46688 5.69716 7.01056 6.05012 6.63707C7.22062 6.6383 7.97828 7.44269 8.02051 8.72391C8.03035 9.0179 8.03322 10.5918 8.03322 10.5918V12.4306H9.60547V9.94485C9.60547 9.19335 9.61122 8.54272 9.55955 8.095C9.41522 6.8429 8.65675 6.00775 7.5133 6.00775ZM15.8044 8.98997V6.15987H14.2317C14.2317 6.15987 14.2304 7.55381 14.2317 8.7522C14.2325 9.55905 14.2374 10.2777 14.2317 10.4254C14.2038 11.1236 14.0144 11.5799 13.6614 11.9534C12.4909 11.9521 11.7332 11.1477 11.691 9.86653C11.6812 9.57258 11.6771 8.8424 11.6771 7.99701V6.15864L10.1056 6.16028V8.646C10.1056 9.39754 10.0999 10.0482 10.1516 10.4959C10.2967 11.7476 11.0547 12.5827 12.1982 12.5827C12.7852 12.5827 13.2846 12.3515 13.6614 11.9554C13.688 11.9567 13.7147 11.9571 13.7414 11.9571C14.5076 11.9571 15.2259 11.5143 15.5764 10.8276C15.7297 10.5275 15.7863 10.2044 15.8044 9.87596C15.8204 9.58119 15.8044 9.2815 15.8044 8.9896M19.5131 8.97033H18.1601V7.10855H19.5131C20.0596 7.10855 20.4626 7.50628 20.4626 8.03063C20.4626 8.55497 20.0596 8.9707 19.5131 8.9707V8.97027V8.97033ZM19.5131 6.09673H17.1118V12.4232H18.1601V9.98298H19.5131C20.6688 9.98298 21.5199 9.16054 21.5199 8.03063C21.5199 6.90071 20.6688 6.09631 19.5131 6.09631M24.4677 10.6426C24.4677 11.1941 23.9929 11.7181 23.3029 11.7181C22.8638 11.7181 22.5773 11.4741 22.5773 11.1305C22.5773 10.6697 23.0164 10.4528 23.7957 10.4528H24.4677V10.6426ZM23.5358 7.91295C22.5949 7.91295 21.8065 8.60868 21.7347 9.49467H22.6306C22.6576 9.04286 23.0516 8.73538 23.5354 8.73538C24.0999 8.73538 24.4673 9.08801 24.4673 9.62096V9.70215H23.8224C22.5141 9.70215 21.6991 10.2806 21.6991 11.2113C21.6991 11.9525 22.2813 12.5126 23.1324 12.5126C23.715 12.5126 24.1626 12.2867 24.4673 11.871V12.4224H25.4082V9.68452C25.4082 8.62713 24.7543 7.91295 23.5358 7.91295ZM29.025 8.01832L27.8513 11.028L26.6775 8.01832H25.6025L27.3404 12.2031L26.552 13.9922H27.6274L30.1 8.01832H29.025Z" fill="#4A0A73" style="fill:#4A0A73;fill:color(display-p3 0.2902 0.0392 0.4510);fill-opacity:1;"></path>
</g>
<defs>
<clipPath id="svg-682132841_2853_clip0_317_2042">
<rect width="26.2128" height="8" fill="white" style="fill:white;fill-opacity:1;" transform="translate(3.89362 6)"></rect>
</clipPath>
</defs>
</svg>
