<svg xmlns="http://www.w3.org/2000/svg" width="33" height="32" viewBox="0 0 33 32" fill="none">

<path d="M0.5 12.8C0.5 8.31958 0.5 6.07937 1.37195 4.36808C2.13893 2.86278 3.36278 1.63893 4.86808 0.871948C6.57937 0 8.81958 0 13.3 0H19.7C24.1804 0 26.4206 0 28.1319 0.871948C29.6372 1.63893 30.8611 2.86278 31.6281 4.36808C32.5 6.07937 32.5 8.31958 32.5 12.8V19.2C32.5 23.6804 32.5 25.9206 31.6281 27.6319C30.8611 29.1372 29.6372 30.3611 28.1319 31.1281C26.4206 32 24.1804 32 19.7 32H13.3C8.81958 32 6.57937 32 4.86808 31.1281C3.36278 30.3611 2.13893 29.1372 1.37195 27.6319C0.5 25.9206 0.5 23.6804 0.5 19.2V12.8Z" fill="url(#svg-2137349245_3252_paint0_linear_158_1573)" style=""></path>
<path fill-rule="evenodd" clip-rule="evenodd" d="M24.9384 7.5454C22.8086 5.41569 19.9744 4.23975 16.956 4.23975C10.7349 4.23975 5.67884 9.30119 5.67342 15.5169C5.67342 17.5057 6.19366 19.4458 7.17994 21.1528L5.5813 27L11.564 25.4339C13.2114 26.3334 15.0647 26.8049 16.956 26.8049H16.9614C23.1771 26.8049 28.2386 21.7435 28.244 15.5277C28.244 12.5093 27.0681 9.67511 24.9384 7.5454ZM16.9614 24.8974C15.2761 24.8974 13.6233 24.4422 12.1872 23.5914L11.8458 23.3909L8.29627 24.323L9.24462 20.8656L9.02243 20.5133C8.08493 19.0231 7.58637 17.2944 7.58637 15.5223C7.58637 10.3525 11.797 6.14727 16.9668 6.14727C19.4705 6.14727 21.8278 7.12271 23.5944 8.89476C25.3665 10.6668 26.3419 13.0241 26.3365 15.5277C26.3311 20.6922 22.1258 24.8974 16.9614 24.8974ZM22.1042 17.8796C21.8224 17.7387 20.4351 17.0559 20.1804 16.9638C19.9203 16.8717 19.736 16.8229 19.5463 17.1047C19.3567 17.3865 18.8202 18.0205 18.6522 18.2102C18.4896 18.3999 18.3216 18.4216 18.0398 18.2807C17.758 18.1398 16.8476 17.8417 15.7746 16.8825C14.9347 16.1347 14.3711 15.2134 14.2085 14.9316C14.0459 14.6499 14.1923 14.4981 14.3332 14.3572C14.4578 14.2326 14.615 14.0267 14.7558 13.8641C14.8967 13.7015 14.9455 13.5823 15.0376 13.3926C15.1298 13.203 15.0864 13.0404 15.016 12.8995C14.9455 12.7586 14.3819 11.3713 14.1489 10.8077C13.9213 10.2604 13.6883 10.3308 13.5149 10.3254C13.3523 10.3146 13.1626 10.3146 12.973 10.3146C12.7833 10.3146 12.4798 10.385 12.2197 10.6668C11.9596 10.9486 11.2334 11.6314 11.2334 13.0187C11.2334 14.406 12.2414 15.7445 12.3823 15.9342C12.5232 16.1238 14.3711 18.9689 17.1999 20.1882C17.8718 20.4808 18.3975 20.6542 18.8093 20.7843C19.4867 21.001 20.0991 20.9685 20.5868 20.8981C21.1287 20.8168 22.2559 20.2153 22.4889 19.5596C22.7219 18.9039 22.7219 18.3348 22.6515 18.221C22.5702 18.091 22.386 18.0205 22.1042 17.8796Z" fill="url(#svg-2137349245_3252_paint1_linear_158_1573)" style=""></path>
<defs>
<linearGradient id="svg-2137349245_3252_paint0_linear_158_1573" x1="16.5012" y1="32.0024" x2="16.5012" y2="0" gradientUnits="userSpaceOnUse">
<stop stop-color="#25CF43" style="stop-color:#25CF43;stop-color:color(display-p3 0.1451 0.8118 0.2627);stop-opacity:1;"></stop>
<stop offset="1" stop-color="#61FD7D" style="stop-color:#61FD7D;stop-color:color(display-p3 0.3804 0.9922 0.4902);stop-opacity:1;"></stop>
</linearGradient>
<linearGradient id="svg-2137349245_3252_paint1_linear_158_1573" x1="5.4062" y1="-0.436737" x2="21.9542" y2="23.7147" gradientUnits="userSpaceOnUse">
<stop stop-color="white" style="stop-color:white;stop-opacity:1;"></stop>
<stop offset="1" stop-color="white" stop-opacity="0.65" style="stop-color:white;stop-opacity:0.65;"></stop>
</linearGradient>
</defs>

</svg>

