<svg xmlns="http://www.w3.org/2000/svg" width="21" height="20" viewBox="0 0 21 20" fill="none">

<path fill-rule="evenodd" clip-rule="evenodd" d="M11.8794 4.30734C11.8865 8.57247 11.8884 8.60975 12.0654 8.1109C12.8947 5.77355 14.5261 3.54522 16.5104 2.03941C17.3139 1.42974 18.8779 0.588318 19.8394 0.248567L20.5003 0.0150129L16.1862 0.00745573L11.8721 0L11.8794 4.30734Z" fill="#841E67" style="fill:#841E67;fill:color(display-p3 0.5176 0.1176 0.4039);fill-opacity:1;"></path>
<path fill-rule="evenodd" clip-rule="evenodd" d="M0.504888 4.25697L0.509775 8.51393L0.75007 7.88329C2.07672 4.40105 4.80135 1.63246 8.18063 0.332799L9.0285 0.00665012L4.76425 0.00332468L0.5 0L0.504888 4.25697Z" fill="#E44F25" style="fill:#E44F25;fill:color(display-p3 0.8941 0.3098 0.1451);fill-opacity:1;"></path>
<path fill-rule="evenodd" clip-rule="evenodd" d="M0.503092 15.7428L0.506084 19.9998L0.881538 19.0893C2.27941 15.6991 4.71747 13.2509 8.05286 11.8881L9.0285 11.4894L4.76425 11.4877L0.5 11.4858L0.503092 15.7428Z" fill="#009BA3" style="fill:#009BA3;fill:color(display-p3 0.0000 0.6078 0.6392);fill-opacity:1;"></path>

</svg>

