<svg xmlns="http://www.w3.org/2000/svg" width="29" height="20" viewBox="0 0 29 20" fill="none">

<g filter="url(#svg907222108_2463_filter0_dd_158_1256)">
<path fill-rule="evenodd" clip-rule="evenodd" d="M5.35806 9.97883C2.6652 15.465 0.47913 19.9745 0.50015 19.9999C0.521035 20.0253 7.62238 16.6739 16.2807 12.5524C24.939 8.43086 28.5263 6.54 28.4999 6.51379C28.4734 6.48757 24.0979 8.1004 24.0979 8.1004C24.0979 8.1004 16.1601 10.5872 16.0856 10.557C16.011 10.5267 14.6989 8.1381 13.1699 5.24891C11.6409 2.35972 10.3593 -0.00228346 10.322 1.65665e-06C10.2847 0.00215235 8.05092 4.49267 5.35806 9.97883ZM11.6532 8.94649C12.3462 10.3227 12.8913 11.4702 12.8646 11.4965C12.7679 11.5924 7.54061 13.4069 7.49274 13.3613C7.42832 13.2999 10.2329 6.44994 10.3238 6.44685C10.3619 6.44564 10.9602 7.57045 11.6532 8.94649ZM15.9936 16.771C15.2717 17.3385 14.6767 17.8484 14.6714 17.9037C14.666 17.9591 15.516 18.0045 16.5602 18.0045C17.8781 18.0045 18.4588 17.9582 18.4588 17.8531C18.4588 17.7173 17.3899 15.7053 17.3305 15.7292C17.317 15.7348 16.7155 16.2035 15.9936 16.771Z" fill="url(#svg907222108_2463_paint0_linear_158_1256)" style=""></path>
</g>
<defs>
<filter id="svg907222108_2463_filter0_dd_158_1256" x="-29.5" y="-26.1015" width="88" height="80" filterUnits="userSpaceOnUse" color-interpolation-filters="sRGB">
<feFlood flood-opacity="0" result="BackgroundImageFix"></feFlood>
<feColorMatrix in="SourceAlpha" type="matrix" values="0 0 0 0 0 0 0 0 0 0 0 0 0 0 0 0 0 0 127 0" result="hardAlpha"></feColorMatrix>
<feOffset dy="10"></feOffset>
<feGaussianBlur stdDeviation="10"></feGaussianBlur>
<feColorMatrix type="matrix" values="0 0 0 0 0.866667 0 0 0 0 0.254902 0 0 0 0 0.254902 0 0 0 1 0"></feColorMatrix>
<feBlend mode="normal" in2="BackgroundImageFix" result="effect1_dropShadow_158_1256"></feBlend>
<feColorMatrix in="SourceAlpha" type="matrix" values="0 0 0 0 0 0 0 0 0 0 0 0 0 0 0 0 0 0 127 0" result="hardAlpha"></feColorMatrix>
<feOffset dy="3.89851"></feOffset>
<feGaussianBlur stdDeviation="15"></feGaussianBlur>
<feColorMatrix type="matrix" values="0 0 0 0 0 0 0 0 0 0 0 0 0 0 0 0 0 0 0.17 0"></feColorMatrix>
<feBlend mode="normal" in2="effect1_dropShadow_158_1256" result="effect2_dropShadow_158_1256"></feBlend>
<feBlend mode="normal" in="SourceGraphic" in2="effect2_dropShadow_158_1256" result="shape"></feBlend>
</filter>
<linearGradient id="svg907222108_2463_paint0_linear_158_1256" x1="0.283658" y1="-4.10934" x2="12.5646" y2="21.0918" gradientUnits="userSpaceOnUse">
<stop stop-color="white" style="stop-color:white;stop-opacity:1;"></stop>
<stop offset="1" stop-color="white" stop-opacity="0.65" style="stop-color:white;stop-opacity:0.65;"></stop>
</linearGradient>
</defs>

</svg>

