<svg xmlns="http://www.w3.org/2000/svg" width="25" height="14" viewBox="0 0 25 14" fill="none">

<path d="M2.00394 14H19.2958L10.2529 0.697126C10.2529 0.697126 9.96244 3.05176e-05 8.52952 3.05176e-05C7.29024 3.05176e-05 6.92233 0.697126 6.92233 0.697126L0.474199 10.2241C0.474199 10.2241 -0.397171 11.2504 0.222469 12.5671C0.840519 13.8805 2.00394 14 2.00394 14Z" fill="#2726B0" style="fill:#2726B0;fill:color(display-p3 0.1529 0.1490 0.6902);fill-opacity:1;"></path>
<path d="M22.791 14H5.49915L14.542 0.697126C14.542 0.697126 14.8325 3.05176e-05 16.2654 3.05176e-05C17.5047 3.05176e-05 17.8726 0.697126 17.8726 0.697126L24.3207 10.2241C24.3207 10.2241 25.1921 11.2504 24.5725 12.5671C23.9544 13.8805 22.791 14 22.791 14Z" fill="url(#svg972045012_1322_paint0_linear_158_1382)" style=""></path>
<defs>
<linearGradient id="svg972045012_1322_paint0_linear_158_1382" x1="6.50602" y1="7.24208" x2="24.7854" y2="7.24208" gradientUnits="userSpaceOnUse">
<stop stop-color="#1BEEEA" style="stop-color:#1BEEEA;stop-color:color(display-p3 0.1059 0.9333 0.9176);stop-opacity:1;"></stop>
<stop offset="0.5" stop-color="#699DF1" style="stop-color:#699DF1;stop-color:color(display-p3 0.4118 0.6157 0.9451);stop-opacity:1;"></stop>
<stop offset="1" stop-color="#D4A1F2" style="stop-color:#D4A1F2;stop-color:color(display-p3 0.8314 0.6314 0.9490);stop-opacity:1;"></stop>
</linearGradient>
</defs>

</svg>

